<svg width="24" height="24" viewBox="-4 -4 31 31" xmlns="http://www.w3.org/2000/svg">
<circle cx="12" cy="12" r="12" />
<path fill-rule="evenodd" clip-rule="evenodd" d="M7.9355 6.25165C7.46475 5.88562 6.78407 5.91889 6.35149 6.35147C5.88286 6.8201 5.88286 7.5799 6.35149 8.04853L10.303 12L6.35147 15.9515C5.88284 16.4201 5.88284 17.1799 6.35147 17.6485C6.78405 18.0811 7.46473 18.1144 7.93548 17.7484L8.04853 17.6485L12 13.697L15.9515 17.6485L16.0645 17.7484C16.5353 18.1144 17.216 18.0811 17.6485 17.6485C18.1172 17.1799 18.1172 16.4201 17.6485 15.9515L13.6971 12L17.6485 8.04853C18.1172 7.5799 18.1172 6.8201 17.6485 6.35147C17.2159 5.91889 16.5353 5.88562 16.0645 6.25165L15.9515 6.35147L12 10.3029L8.04854 6.35147L7.9355 6.25165Z" fill="white"/>
</svg>
