<svg width="24" height="24" viewBox="0 0 24 24" fill="none" xmlns="http://www.w3.org/2000/svg">
<path fill-rule="evenodd" clip-rule="evenodd" d="M11.9993 4.75102L12.0408 4.70843C14.3187 2.43052 18.0122 2.43052 20.2901 4.70843C22.568 6.98634 22.568 10.6798 20.2901 12.9577L11.9984 21.2494L3.70843 12.9577C1.43052 10.6798 1.43052 6.98634 3.70843 4.70843C5.98634 2.43052 9.67976 2.43052 11.9577 4.70843L11.9993 4.75102ZM11.3049 6.53094C11.1506 6.29841 10.9748 6.08259 10.7792 5.88693C9.15213 4.25989 6.51397 4.25989 4.88693 5.88693C3.25988 7.51397 3.25988 10.1521 4.88699 11.7792L11.9984 18.8908L19.1116 11.7792C20.6893 10.2014 20.7371 7.67293 19.255 6.03757L19.1116 5.88693C17.4845 4.25989 14.8464 4.25989 13.2193 5.88693C13.0232 6.08309 12.8482 6.298 12.6936 6.53094L11.9992 7.57726L11.3049 6.53094Z" fill="#475DA7"/>
</svg>
