<svg width="24" height="24" viewBox="0 0 24 24" fill="none" xmlns="http://www.w3.org/2000/svg">
<path fill-rule="evenodd" clip-rule="evenodd" d="M4.62825 3H19.3718C20.271 3 21 3.729 21 4.62825V19.3717C21 20.271 20.271 21 19.3717 21H4.62825C3.729 21 3 20.271 3 19.3717V4.62825C3 3.729 3.729 3 4.62825 3ZM8.09612 19.0162C8.35783 19.0162 8.56996 18.8041 8.56996 18.5424V10.0871C8.56996 9.82535 8.35783 9.61321 8.09612 9.61321H6.07908C5.81738 9.61321 5.60524 9.82535 5.60524 10.0871V18.5424C5.60524 18.8041 5.81738 19.0162 6.07908 19.0162H8.09612ZM7.0876 8.81617C6.02932 8.81617 5.1714 7.95825 5.1714 6.89997C5.1714 5.84169 6.02932 4.98377 7.0876 4.98377C8.14588 4.98377 9.0038 5.84169 9.0038 6.89997C9.0038 7.95825 8.14593 8.81617 7.0876 8.81617ZM18.6753 19.0162C18.9159 19.0162 19.1109 18.8212 19.1109 18.5806V14.4883V14.4581C19.1111 12.6729 19.1113 9.47133 15.665 9.47133C14.0999 9.47133 13.3648 10.0443 12.8702 10.7866V10.0489C12.8702 9.80829 12.6751 9.61321 12.4345 9.61321H10.3411C10.1005 9.61321 9.90545 9.80829 9.90545 10.0489V18.5806C9.90545 18.8212 10.1005 19.0162 10.3411 19.0162H12.4345C12.6751 19.0162 12.8702 18.8212 12.8702 18.5806V14.0062C12.9245 13.3915 13.1951 12.0219 14.529 12.0219C16.122 12.0219 16.0905 13.7389 16.0772 14.4622C16.0761 14.5197 16.0752 14.5709 16.0752 14.6145V18.5806C16.0752 18.8212 16.2702 19.0162 16.5108 19.0162H18.6753Z" fill="#0077B7"/>
</svg>
