<svg width="24" height="24" viewBox="0 0 24 24" fill="none" xmlns="http://www.w3.org/2000/svg">
<rect y="7" width="24" height="9.6" fill="#005EB8"/>
<path d="M2.60308 8.08911H5.17413L6.75025 13.2375H6.77417L7.85521 8.08911H9.79725L8.16373 15.5132H5.60464L3.99264 10.3763H3.97112L2.90204 15.5132H0.959991L2.60308 8.08911Z" fill="white"/>
<path d="M10.5554 8.08911H12.6194L12.0119 10.9296H14.4515L15.0589 8.08911H17.123L15.5229 15.5132H13.4469L14.131 12.3337H11.7034L11.0194 15.5132H8.95776L10.5554 8.08911Z" fill="white"/>
<path d="M22.5497 9.76993C22.0206 9.53514 21.4435 9.4185 20.8612 9.4287C20.0456 9.4287 19.3831 9.54628 19.3831 10.1411C19.3831 11.1948 22.3727 10.8005 22.3727 13.0554C22.3727 15.1074 20.3972 15.64 18.6106 15.64C17.7986 15.6218 16.9934 15.493 16.2189 15.2573L16.6972 13.7471C17.1062 14.003 17.9218 14.1737 18.5938 14.1737C19.2659 14.1737 20.2369 14.0561 20.2369 13.2906C20.2369 12.0986 17.2473 12.5459 17.2473 10.4501C17.2473 8.53643 18.9909 7.96002 20.6794 7.96002C21.6361 7.96002 22.521 8.05686 23.04 8.28972L22.5497 9.76993Z" fill="white"/>
</svg>
