<svg width="24" height="24" viewBox="-3 -2 29 29" xmlns="http://www.w3.org/2000/svg">
<path fill-rule="evenodd" clip-rule="evenodd" d="M17.625 8H18.75C19.9875 8 21 9.02857 21 10.2857V21.7143C21 22.9714 19.9875 24 18.75 24H5.25C4.0125 24 3 22.9714 3 21.7143V10.2857C3 9.02857 4.0125 8 5.25 8H6.375V5.71429C6.375 2.56 8.895 0 12 0C15.105 0 17.625 2.56 17.625 5.71429V8ZM14.25 16C14.25 17.2571 13.2375 18.2857 12 18.2857C10.7625 18.2857 9.75 17.2571 9.75 16C9.75 14.7429 10.7625 13.7143 12 13.7143C13.2375 13.7143 14.25 14.7429 14.25 16ZM8.5125 5.71429C8.5125 3.76 10.0762 2.17143 12 2.17143C13.9237 2.17143 15.4875 3.76 15.4875 5.71429V8H8.5125V5.71429ZM5.25 21.7143H18.75V10.2857H5.25V21.7143Z" />
</svg>
