<svg width="24" height="24" viewBox="-4 -3 32 32" xmlns="http://www.w3.org/2000/svg">
<path fill-rule="evenodd" clip-rule="evenodd" d="M12 0C9.23858 0 7 2.23858 7 5C7 7.41896 8.71776 9.43671 11 9.89998V12.495L7.8001 14.857C7.0012 14.316 6.0375 14 5 14C2.23858 14 0 16.2386 0 19C0 21.7614 2.23858 24 5 24C7.76142 24 10 21.7614 10 19C10 18.0063 9.71012 17.0803 9.21031 16.302L12 14.2429L14.7897 16.302C14.2899 17.0803 14 18.0063 14 19C14 21.7614 16.2386 24 19 24C21.7614 24 24 21.7614 24 19C24 16.2386 21.7614 14 19 14C17.9625 14 16.9988 14.316 16.1999 14.857L13 12.4952V9.89998C15.2822 9.43671 17 7.41896 17 5C17 2.23858 14.7614 0 12 0ZM12 2C13.6569 2 15 3.34315 15 5C15 6.65685 13.6569 8 12 8C10.3431 8 9 6.65685 9 5C9 3.34315 10.3431 2 12 2ZM8 19C8 17.3431 6.65685 16 5 16C3.34315 16 2 17.3431 2 19C2 20.6569 3.34315 22 5 22C6.65685 22 8 20.6569 8 19ZM19 16C20.6569 16 22 17.3431 22 19C22 20.6569 20.6569 22 19 22C17.3431 22 16 20.6569 16 19C16 17.3431 17.3431 16 19 16Z" />
</svg>
